<mxfile host="app.diagrams.net" agent="Mozilla/5.0 (Windows NT 10.0; Win64; x64) AppleWebKit/537.36 (KHTML, like Gecko) Chrome/135.0.0.0 Safari/537.36" version="26.2.14">
  <diagram name="Page-1" id="c37626ed-c26b-45fb-9056-f9ebc6bb27b6">
    <mxGraphModel dx="1678" dy="1734" grid="1" gridSize="10" guides="1" tooltips="1" connect="1" arrows="1" fold="1" page="1" pageScale="1" pageWidth="1100" pageHeight="850" background="none" math="0" shadow="0">
      <root>
        <mxCell id="0" />
        <mxCell id="1" parent="0" />
        <mxCell id="N6c3QZD02UE0T_fa2-rO-1" value="&lt;font style=&quot;font-size: 51px;&quot;&gt;&lt;b style=&quot;&quot;&gt;&lt;u style=&quot;&quot;&gt;Essendon Fields Network Diagram&lt;/u&gt;&lt;/b&gt;&lt;/font&gt;" style="text;html=1;align=center;verticalAlign=middle;whiteSpace=wrap;rounded=0;" parent="1" vertex="1">
          <mxGeometry x="85" y="-820" width="970" height="30" as="geometry" />
        </mxCell>
        <mxCell id="N6c3QZD02UE0T_fa2-rO-3" value="" style="verticalLabelPosition=bottom;sketch=0;html=1;fillColor=#A153A0;strokeColor=#ffffff;verticalAlign=top;align=center;points=[[0,0.5,0],[0.125,0.25,0],[0.25,0,0],[0.5,0,0],[0.75,0,0],[0.875,0.25,0],[1,0.5,0],[0.875,0.75,0],[0.75,1,0],[0.5,1,0],[0.125,0.75,0]];pointerEvents=1;shape=mxgraph.cisco_safe.compositeIcon;bgIcon=mxgraph.cisco_safe.design.blank_device;resIcon=mxgraph.cisco_safe.design.sd_wan;" parent="1" vertex="1">
          <mxGeometry x="440" y="-500" width="110" height="85" as="geometry" />
        </mxCell>
        <mxCell id="N6c3QZD02UE0T_fa2-rO-4" value="Primary internet&lt;br&gt;Router&amp;nbsp;" style="ellipse;whiteSpace=wrap;html=1;aspect=fixed;" parent="1" vertex="1">
          <mxGeometry x="370" y="-650" width="80" height="80" as="geometry" />
        </mxCell>
        <mxCell id="N6c3QZD02UE0T_fa2-rO-5" value="Secondary Internet Router" style="ellipse;whiteSpace=wrap;html=1;aspect=fixed;" parent="1" vertex="1">
          <mxGeometry x="680" y="-640" width="80" height="80" as="geometry" />
        </mxCell>
        <mxCell id="N6c3QZD02UE0T_fa2-rO-7" value="" style="verticalLabelPosition=bottom;sketch=0;html=1;fillColor=#A153A0;strokeColor=#ffffff;verticalAlign=top;align=center;points=[[0,0.5,0],[0.125,0.25,0],[0.25,0,0],[0.5,0,0],[0.75,0,0],[0.875,0.25,0],[1,0.5,0],[0.875,0.75,0],[0.75,1,0],[0.5,1,0],[0.125,0.75,0]];pointerEvents=1;shape=mxgraph.cisco_safe.compositeIcon;bgIcon=mxgraph.cisco_safe.design.blank_device;resIcon=mxgraph.cisco_safe.design.sd_wan;" parent="1" vertex="1">
          <mxGeometry x="575" y="-500" width="110" height="85" as="geometry" />
        </mxCell>
        <mxCell id="N6c3QZD02UE0T_fa2-rO-9" value="" style="endArrow=none;html=1;rounded=0;entryX=0;entryY=0.5;entryDx=0;entryDy=0;entryPerimeter=0;" parent="1" source="N6c3QZD02UE0T_fa2-rO-3" target="N6c3QZD02UE0T_fa2-rO-7" edge="1">
          <mxGeometry width="50" height="50" relative="1" as="geometry">
            <mxPoint x="525" y="-380" as="sourcePoint" />
            <mxPoint x="575" y="-430" as="targetPoint" />
          </mxGeometry>
        </mxCell>
        <mxCell id="N6c3QZD02UE0T_fa2-rO-12" value="" style="endArrow=none;html=1;rounded=0;exitX=0.003;exitY=0.463;exitDx=0;exitDy=0;exitPerimeter=0;entryX=0.5;entryY=1;entryDx=0;entryDy=0;" parent="1" source="N6c3QZD02UE0T_fa2-rO-3" target="N6c3QZD02UE0T_fa2-rO-4" edge="1">
          <mxGeometry width="50" height="50" relative="1" as="geometry">
            <mxPoint x="525" y="-380" as="sourcePoint" />
            <mxPoint x="454.99999999997635" y="-444.42499999999995" as="targetPoint" />
          </mxGeometry>
        </mxCell>
        <mxCell id="N6c3QZD02UE0T_fa2-rO-13" value="" style="endArrow=none;html=1;rounded=0;exitX=1;exitY=0.5;exitDx=0;exitDy=0;exitPerimeter=0;" parent="1" source="N6c3QZD02UE0T_fa2-rO-7" target="N6c3QZD02UE0T_fa2-rO-5" edge="1">
          <mxGeometry width="50" height="50" relative="1" as="geometry">
            <mxPoint x="505" y="-315" as="sourcePoint" />
            <mxPoint x="664.9999999999818" y="-444.42499999999995" as="targetPoint" />
          </mxGeometry>
        </mxCell>
        <mxCell id="N6c3QZD02UE0T_fa2-rO-14" value="Core Switch Stack" style="rounded=0;whiteSpace=wrap;html=1;" parent="1" vertex="1">
          <mxGeometry x="510" y="-330" width="120" height="60" as="geometry" />
        </mxCell>
        <mxCell id="N6c3QZD02UE0T_fa2-rO-15" value="SD-wan 1" style="text;html=1;align=center;verticalAlign=middle;whiteSpace=wrap;rounded=0;" parent="1" vertex="1">
          <mxGeometry x="465" y="-530" width="60" height="30" as="geometry" />
        </mxCell>
        <mxCell id="N6c3QZD02UE0T_fa2-rO-16" value="SD-wan 2" style="text;html=1;align=center;verticalAlign=middle;whiteSpace=wrap;rounded=0;" parent="1" vertex="1">
          <mxGeometry x="600" y="-530" width="60" height="30" as="geometry" />
        </mxCell>
        <mxCell id="N6c3QZD02UE0T_fa2-rO-19" value="Internet&amp;nbsp;" style="ellipse;shape=cloud;whiteSpace=wrap;html=1;" parent="1" vertex="1">
          <mxGeometry x="495" y="-760" width="120" height="80" as="geometry" />
        </mxCell>
        <mxCell id="N6c3QZD02UE0T_fa2-rO-20" value="" style="endArrow=classic;startArrow=classic;html=1;rounded=0;entryX=0.16;entryY=0.55;entryDx=0;entryDy=0;entryPerimeter=0;" parent="1" source="N6c3QZD02UE0T_fa2-rO-4" target="N6c3QZD02UE0T_fa2-rO-19" edge="1">
          <mxGeometry width="50" height="50" relative="1" as="geometry">
            <mxPoint x="535" y="-450" as="sourcePoint" />
            <mxPoint x="585" y="-500" as="targetPoint" />
          </mxGeometry>
        </mxCell>
        <mxCell id="N6c3QZD02UE0T_fa2-rO-21" value="" style="endArrow=classic;startArrow=classic;html=1;rounded=0;entryX=0.875;entryY=0.5;entryDx=0;entryDy=0;entryPerimeter=0;exitX=0.5;exitY=0;exitDx=0;exitDy=0;" parent="1" source="N6c3QZD02UE0T_fa2-rO-5" target="N6c3QZD02UE0T_fa2-rO-19" edge="1">
          <mxGeometry width="50" height="50" relative="1" as="geometry">
            <mxPoint x="425" y="-617" as="sourcePoint" />
            <mxPoint x="524" y="-706" as="targetPoint" />
          </mxGeometry>
        </mxCell>
        <mxCell id="N6c3QZD02UE0T_fa2-rO-22" value="" style="endArrow=none;html=1;rounded=0;entryX=0.5;entryY=1;entryDx=0;entryDy=0;entryPerimeter=0;" parent="1" target="N6c3QZD02UE0T_fa2-rO-3" edge="1">
          <mxGeometry width="50" height="50" relative="1" as="geometry">
            <mxPoint x="495" y="-415" as="sourcePoint" />
            <mxPoint x="325" y="-190" as="targetPoint" />
          </mxGeometry>
        </mxCell>
        <mxCell id="N6c3QZD02UE0T_fa2-rO-23" value="" style="endArrow=none;html=1;rounded=0;entryX=0.5;entryY=1;entryDx=0;entryDy=0;entryPerimeter=0;exitX=0.617;exitY=-0.018;exitDx=0;exitDy=0;exitPerimeter=0;" parent="1" source="N6c3QZD02UE0T_fa2-rO-14" target="N6c3QZD02UE0T_fa2-rO-7" edge="1">
          <mxGeometry width="50" height="50" relative="1" as="geometry">
            <mxPoint x="630" y="-130.00000000000023" as="sourcePoint" />
            <mxPoint x="497" y="-231" as="targetPoint" />
          </mxGeometry>
        </mxCell>
        <mxCell id="N6c3QZD02UE0T_fa2-rO-26" value="Office area 1&lt;br&gt;Access Switch 3" style="rounded=0;whiteSpace=wrap;html=1;" parent="1" vertex="1">
          <mxGeometry x="140" y="-160" width="120" height="60" as="geometry" />
        </mxCell>
        <mxCell id="N6c3QZD02UE0T_fa2-rO-27" value="Office area 1&lt;br&gt;Access Switch 4" style="rounded=0;whiteSpace=wrap;html=1;" parent="1" vertex="1">
          <mxGeometry x="370" y="-160" width="120" height="60" as="geometry" />
        </mxCell>
        <mxCell id="N6c3QZD02UE0T_fa2-rO-28" value="Office area 2&lt;br&gt;Access Switch 5" style="rounded=0;whiteSpace=wrap;html=1;" parent="1" vertex="1">
          <mxGeometry x="640" y="-150" width="120" height="60" as="geometry" />
        </mxCell>
        <mxCell id="N6c3QZD02UE0T_fa2-rO-29" value="Office area 2&lt;br&gt;Access Switch 6" style="rounded=0;whiteSpace=wrap;html=1;" parent="1" vertex="1">
          <mxGeometry x="850" y="-150" width="120" height="60" as="geometry" />
        </mxCell>
        <mxCell id="N6c3QZD02UE0T_fa2-rO-32" value="" style="endArrow=none;html=1;rounded=0;exitX=0.5;exitY=0;exitDx=0;exitDy=0;" parent="1" source="N6c3QZD02UE0T_fa2-rO-26" edge="1">
          <mxGeometry width="50" height="50" relative="1" as="geometry">
            <mxPoint x="100" y="50" as="sourcePoint" />
            <mxPoint x="570" y="-270" as="targetPoint" />
          </mxGeometry>
        </mxCell>
        <mxCell id="N6c3QZD02UE0T_fa2-rO-33" value="" style="endArrow=none;html=1;rounded=0;exitX=0.5;exitY=0;exitDx=0;exitDy=0;" parent="1" source="N6c3QZD02UE0T_fa2-rO-27" edge="1">
          <mxGeometry width="50" height="50" relative="1" as="geometry">
            <mxPoint x="110" y="60" as="sourcePoint" />
            <mxPoint x="570" y="-270" as="targetPoint" />
          </mxGeometry>
        </mxCell>
        <mxCell id="N6c3QZD02UE0T_fa2-rO-34" value="" style="endArrow=none;html=1;rounded=0;exitX=0.5;exitY=0;exitDx=0;exitDy=0;entryX=0.5;entryY=1;entryDx=0;entryDy=0;" parent="1" source="N6c3QZD02UE0T_fa2-rO-28" target="N6c3QZD02UE0T_fa2-rO-14" edge="1">
          <mxGeometry width="50" height="50" relative="1" as="geometry">
            <mxPoint x="120" y="70" as="sourcePoint" />
            <mxPoint x="365" y="-59.99999999999977" as="targetPoint" />
          </mxGeometry>
        </mxCell>
        <mxCell id="N6c3QZD02UE0T_fa2-rO-35" value="" style="endArrow=none;html=1;rounded=0;exitX=0.5;exitY=0;exitDx=0;exitDy=0;entryX=0.5;entryY=1;entryDx=0;entryDy=0;" parent="1" source="N6c3QZD02UE0T_fa2-rO-29" target="N6c3QZD02UE0T_fa2-rO-14" edge="1">
          <mxGeometry width="50" height="50" relative="1" as="geometry">
            <mxPoint x="130" y="80" as="sourcePoint" />
            <mxPoint x="365" y="-60" as="targetPoint" />
          </mxGeometry>
        </mxCell>
        <mxCell id="N6c3QZD02UE0T_fa2-rO-58" value="PC&amp;nbsp;" style="whiteSpace=wrap;html=1;aspect=fixed;" parent="1" vertex="1">
          <mxGeometry x="600" y="60" width="80" height="80" as="geometry" />
        </mxCell>
        <mxCell id="N6c3QZD02UE0T_fa2-rO-59" value="" style="endArrow=none;html=1;rounded=0;entryX=0.5;entryY=1;entryDx=0;entryDy=0;exitX=0.5;exitY=0;exitDx=0;exitDy=0;" parent="1" source="N6c3QZD02UE0T_fa2-rO-58" target="N6c3QZD02UE0T_fa2-rO-28" edge="1">
          <mxGeometry width="50" height="50" relative="1" as="geometry">
            <mxPoint x="735" y="10" as="sourcePoint" />
            <mxPoint x="645" y="-100" as="targetPoint" />
          </mxGeometry>
        </mxCell>
        <mxCell id="N6c3QZD02UE0T_fa2-rO-62" value="AP4" style="rhombus;whiteSpace=wrap;html=1;" parent="1" vertex="1">
          <mxGeometry x="890" y="200" width="80" height="80" as="geometry" />
        </mxCell>
        <mxCell id="N6c3QZD02UE0T_fa2-rO-64" value="AP3" style="rhombus;whiteSpace=wrap;html=1;" parent="1" vertex="1">
          <mxGeometry x="660" y="210" width="80" height="80" as="geometry" />
        </mxCell>
        <mxCell id="N6c3QZD02UE0T_fa2-rO-65" value="" style="endArrow=none;html=1;rounded=0;entryX=0.5;entryY=1;entryDx=0;entryDy=0;exitX=0.5;exitY=0;exitDx=0;exitDy=0;" parent="1" source="N6c3QZD02UE0T_fa2-rO-64" target="N6c3QZD02UE0T_fa2-rO-28" edge="1">
          <mxGeometry width="50" height="50" relative="1" as="geometry">
            <mxPoint x="600" y="60" as="sourcePoint" />
            <mxPoint x="645" y="-100" as="targetPoint" />
          </mxGeometry>
        </mxCell>
        <mxCell id="N6c3QZD02UE0T_fa2-rO-68" value="" style="endArrow=none;html=1;rounded=0;entryX=0.5;entryY=1;entryDx=0;entryDy=0;exitX=0.5;exitY=0;exitDx=0;exitDy=0;" parent="1" source="N6c3QZD02UE0T_fa2-rO-62" target="N6c3QZD02UE0T_fa2-rO-29" edge="1">
          <mxGeometry width="50" height="50" relative="1" as="geometry">
            <mxPoint x="630" y="90" as="sourcePoint" />
            <mxPoint x="805" y="-100" as="targetPoint" />
          </mxGeometry>
        </mxCell>
        <mxCell id="N6c3QZD02UE0T_fa2-rO-80" value="PC&amp;nbsp;" style="whiteSpace=wrap;html=1;aspect=fixed;" parent="1" vertex="1">
          <mxGeometry x="720" y="60" width="80" height="80" as="geometry" />
        </mxCell>
        <mxCell id="N6c3QZD02UE0T_fa2-rO-81" value="PC&amp;nbsp;" style="whiteSpace=wrap;html=1;aspect=fixed;" parent="1" vertex="1">
          <mxGeometry x="830" y="60" width="80" height="80" as="geometry" />
        </mxCell>
        <mxCell id="N6c3QZD02UE0T_fa2-rO-82" value="PC&amp;nbsp;" style="whiteSpace=wrap;html=1;aspect=fixed;" parent="1" vertex="1">
          <mxGeometry x="950" y="60" width="80" height="80" as="geometry" />
        </mxCell>
        <mxCell id="N6c3QZD02UE0T_fa2-rO-83" value="" style="endArrow=none;html=1;rounded=0;entryX=0.5;entryY=1;entryDx=0;entryDy=0;exitX=0.5;exitY=0;exitDx=0;exitDy=0;" parent="1" source="N6c3QZD02UE0T_fa2-rO-80" target="N6c3QZD02UE0T_fa2-rO-28" edge="1">
          <mxGeometry width="50" height="50" relative="1" as="geometry">
            <mxPoint x="620" y="70" as="sourcePoint" />
            <mxPoint x="660" y="-90" as="targetPoint" />
          </mxGeometry>
        </mxCell>
        <mxCell id="N6c3QZD02UE0T_fa2-rO-84" value="" style="endArrow=none;html=1;rounded=0;entryX=0.5;entryY=1;entryDx=0;entryDy=0;" parent="1" source="N6c3QZD02UE0T_fa2-rO-81" target="N6c3QZD02UE0T_fa2-rO-29" edge="1">
          <mxGeometry width="50" height="50" relative="1" as="geometry">
            <mxPoint x="630" y="80" as="sourcePoint" />
            <mxPoint x="670" y="-80" as="targetPoint" />
          </mxGeometry>
        </mxCell>
        <mxCell id="N6c3QZD02UE0T_fa2-rO-85" value="" style="endArrow=none;html=1;rounded=0;exitX=0.418;exitY=0.021;exitDx=0;exitDy=0;exitPerimeter=0;entryX=0.5;entryY=1;entryDx=0;entryDy=0;" parent="1" source="N6c3QZD02UE0T_fa2-rO-82" target="N6c3QZD02UE0T_fa2-rO-29" edge="1">
          <mxGeometry width="50" height="50" relative="1" as="geometry">
            <mxPoint x="640" y="90" as="sourcePoint" />
            <mxPoint x="820" y="-100" as="targetPoint" />
          </mxGeometry>
        </mxCell>
        <mxCell id="N6c3QZD02UE0T_fa2-rO-98" value="Wi-Fi &lt;br&gt;Client&amp;nbsp;" style="whiteSpace=wrap;html=1;aspect=fixed;" parent="1" vertex="1">
          <mxGeometry x="550" y="360" width="80" height="80" as="geometry" />
        </mxCell>
        <mxCell id="N6c3QZD02UE0T_fa2-rO-99" value="Wi-Fi &lt;br&gt;Client&amp;nbsp;" style="whiteSpace=wrap;html=1;aspect=fixed;" parent="1" vertex="1">
          <mxGeometry x="730" y="360" width="80" height="80" as="geometry" />
        </mxCell>
        <mxCell id="N6c3QZD02UE0T_fa2-rO-100" value="Wi-Fi &lt;br&gt;Client&amp;nbsp;" style="whiteSpace=wrap;html=1;aspect=fixed;" parent="1" vertex="1">
          <mxGeometry x="1010" y="360" width="80" height="80" as="geometry" />
        </mxCell>
        <mxCell id="N6c3QZD02UE0T_fa2-rO-101" value="Wi-Fi &lt;br&gt;Client&amp;nbsp;" style="whiteSpace=wrap;html=1;aspect=fixed;" parent="1" vertex="1">
          <mxGeometry x="920" y="360" width="80" height="80" as="geometry" />
        </mxCell>
        <mxCell id="N6c3QZD02UE0T_fa2-rO-102" value="Wi-Fi &lt;br&gt;Client&amp;nbsp;" style="whiteSpace=wrap;html=1;aspect=fixed;" parent="1" vertex="1">
          <mxGeometry x="830" y="360" width="80" height="80" as="geometry" />
        </mxCell>
        <mxCell id="N6c3QZD02UE0T_fa2-rO-103" value="Wi-Fi &lt;br&gt;Client&amp;nbsp;" style="whiteSpace=wrap;html=1;aspect=fixed;" parent="1" vertex="1">
          <mxGeometry x="640" y="360" width="80" height="80" as="geometry" />
        </mxCell>
        <mxCell id="N6c3QZD02UE0T_fa2-rO-104" value="" style="endArrow=none;dashed=1;html=1;dashPattern=1 3;strokeWidth=2;rounded=0;entryX=0.5;entryY=1;entryDx=0;entryDy=0;exitX=0.5;exitY=0;exitDx=0;exitDy=0;" parent="1" source="N6c3QZD02UE0T_fa2-rO-98" target="N6c3QZD02UE0T_fa2-rO-64" edge="1">
          <mxGeometry width="50" height="50" relative="1" as="geometry">
            <mxPoint x="510" y="110" as="sourcePoint" />
            <mxPoint x="560" y="60" as="targetPoint" />
          </mxGeometry>
        </mxCell>
        <mxCell id="N6c3QZD02UE0T_fa2-rO-106" value="" style="endArrow=none;dashed=1;html=1;dashPattern=1 3;strokeWidth=2;rounded=0;exitX=0.5;exitY=0;exitDx=0;exitDy=0;" parent="1" source="N6c3QZD02UE0T_fa2-rO-103" edge="1">
          <mxGeometry width="50" height="50" relative="1" as="geometry">
            <mxPoint x="600" y="370" as="sourcePoint" />
            <mxPoint x="700" y="290" as="targetPoint" />
          </mxGeometry>
        </mxCell>
        <mxCell id="N6c3QZD02UE0T_fa2-rO-107" value="" style="endArrow=none;dashed=1;html=1;dashPattern=1 3;strokeWidth=2;rounded=0;exitX=0.5;exitY=0;exitDx=0;exitDy=0;" parent="1" source="N6c3QZD02UE0T_fa2-rO-99" edge="1">
          <mxGeometry width="50" height="50" relative="1" as="geometry">
            <mxPoint x="610" y="380" as="sourcePoint" />
            <mxPoint x="700" y="290" as="targetPoint" />
          </mxGeometry>
        </mxCell>
        <mxCell id="N6c3QZD02UE0T_fa2-rO-108" value="" style="endArrow=none;dashed=1;html=1;dashPattern=1 3;strokeWidth=2;rounded=0;entryX=0.5;entryY=1;entryDx=0;entryDy=0;exitX=0.5;exitY=0;exitDx=0;exitDy=0;" parent="1" source="N6c3QZD02UE0T_fa2-rO-102" target="N6c3QZD02UE0T_fa2-rO-62" edge="1">
          <mxGeometry width="50" height="50" relative="1" as="geometry">
            <mxPoint x="620" y="390" as="sourcePoint" />
            <mxPoint x="730" y="320" as="targetPoint" />
          </mxGeometry>
        </mxCell>
        <mxCell id="N6c3QZD02UE0T_fa2-rO-109" value="" style="endArrow=none;dashed=1;html=1;dashPattern=1 3;strokeWidth=2;rounded=0;entryX=0.5;entryY=1;entryDx=0;entryDy=0;exitX=0.5;exitY=0;exitDx=0;exitDy=0;" parent="1" source="N6c3QZD02UE0T_fa2-rO-101" target="N6c3QZD02UE0T_fa2-rO-62" edge="1">
          <mxGeometry width="50" height="50" relative="1" as="geometry">
            <mxPoint x="880" y="370" as="sourcePoint" />
            <mxPoint x="940" y="290" as="targetPoint" />
          </mxGeometry>
        </mxCell>
        <mxCell id="N6c3QZD02UE0T_fa2-rO-110" value="" style="endArrow=none;dashed=1;html=1;dashPattern=1 3;strokeWidth=2;rounded=0;entryX=0.5;entryY=1;entryDx=0;entryDy=0;exitX=0.5;exitY=0;exitDx=0;exitDy=0;" parent="1" source="N6c3QZD02UE0T_fa2-rO-100" target="N6c3QZD02UE0T_fa2-rO-62" edge="1">
          <mxGeometry width="50" height="50" relative="1" as="geometry">
            <mxPoint x="890" y="380" as="sourcePoint" />
            <mxPoint x="950" y="300" as="targetPoint" />
          </mxGeometry>
        </mxCell>
        <mxCell id="N6c3QZD02UE0T_fa2-rO-135" value="PC&amp;nbsp;" style="whiteSpace=wrap;html=1;aspect=fixed;" parent="1" vertex="1">
          <mxGeometry x="100" y="60" width="80" height="80" as="geometry" />
        </mxCell>
        <mxCell id="N6c3QZD02UE0T_fa2-rO-136" value="" style="endArrow=none;html=1;rounded=0;entryX=0.5;entryY=1;entryDx=0;entryDy=0;exitX=0.5;exitY=0;exitDx=0;exitDy=0;" parent="1" source="N6c3QZD02UE0T_fa2-rO-135" target="N6c3QZD02UE0T_fa2-rO-26" edge="1">
          <mxGeometry width="50" height="50" relative="1" as="geometry">
            <mxPoint x="235" y="10" as="sourcePoint" />
            <mxPoint x="200" y="-90" as="targetPoint" />
          </mxGeometry>
        </mxCell>
        <mxCell id="N6c3QZD02UE0T_fa2-rO-137" value="AP2" style="rhombus;whiteSpace=wrap;html=1;" parent="1" vertex="1">
          <mxGeometry x="390" y="200" width="80" height="80" as="geometry" />
        </mxCell>
        <mxCell id="N6c3QZD02UE0T_fa2-rO-138" value="AP1" style="rhombus;whiteSpace=wrap;html=1;" parent="1" vertex="1">
          <mxGeometry x="160" y="210" width="80" height="80" as="geometry" />
        </mxCell>
        <mxCell id="N6c3QZD02UE0T_fa2-rO-139" value="" style="endArrow=none;html=1;rounded=0;entryX=0.5;entryY=1;entryDx=0;entryDy=0;exitX=0.5;exitY=0;exitDx=0;exitDy=0;" parent="1" source="N6c3QZD02UE0T_fa2-rO-138" target="N6c3QZD02UE0T_fa2-rO-26" edge="1">
          <mxGeometry width="50" height="50" relative="1" as="geometry">
            <mxPoint x="100" y="60" as="sourcePoint" />
            <mxPoint x="200" y="-90" as="targetPoint" />
          </mxGeometry>
        </mxCell>
        <mxCell id="N6c3QZD02UE0T_fa2-rO-140" value="" style="endArrow=none;html=1;rounded=0;entryX=0.5;entryY=1;entryDx=0;entryDy=0;exitX=0.5;exitY=0;exitDx=0;exitDy=0;" parent="1" source="N6c3QZD02UE0T_fa2-rO-137" edge="1">
          <mxGeometry width="50" height="50" relative="1" as="geometry">
            <mxPoint x="130" y="90" as="sourcePoint" />
            <mxPoint x="420" y="-100" as="targetPoint" />
          </mxGeometry>
        </mxCell>
        <mxCell id="N6c3QZD02UE0T_fa2-rO-141" value="PC&amp;nbsp;" style="whiteSpace=wrap;html=1;aspect=fixed;" parent="1" vertex="1">
          <mxGeometry x="220" y="60" width="80" height="80" as="geometry" />
        </mxCell>
        <mxCell id="N6c3QZD02UE0T_fa2-rO-142" value="PC&amp;nbsp;" style="whiteSpace=wrap;html=1;aspect=fixed;" parent="1" vertex="1">
          <mxGeometry x="330" y="60" width="80" height="80" as="geometry" />
        </mxCell>
        <mxCell id="N6c3QZD02UE0T_fa2-rO-143" value="PC&amp;nbsp;" style="whiteSpace=wrap;html=1;aspect=fixed;" parent="1" vertex="1">
          <mxGeometry x="450" y="60" width="80" height="80" as="geometry" />
        </mxCell>
        <mxCell id="N6c3QZD02UE0T_fa2-rO-144" value="" style="endArrow=none;html=1;rounded=0;entryX=0.5;entryY=1;entryDx=0;entryDy=0;exitX=0.5;exitY=0;exitDx=0;exitDy=0;" parent="1" source="N6c3QZD02UE0T_fa2-rO-141" target="N6c3QZD02UE0T_fa2-rO-26" edge="1">
          <mxGeometry width="50" height="50" relative="1" as="geometry">
            <mxPoint x="120" y="70" as="sourcePoint" />
            <mxPoint x="200" y="-90" as="targetPoint" />
          </mxGeometry>
        </mxCell>
        <mxCell id="N6c3QZD02UE0T_fa2-rO-145" value="" style="endArrow=none;html=1;rounded=0;entryX=0.5;entryY=1;entryDx=0;entryDy=0;" parent="1" source="N6c3QZD02UE0T_fa2-rO-142" edge="1">
          <mxGeometry width="50" height="50" relative="1" as="geometry">
            <mxPoint x="130" y="80" as="sourcePoint" />
            <mxPoint x="420" y="-100" as="targetPoint" />
          </mxGeometry>
        </mxCell>
        <mxCell id="N6c3QZD02UE0T_fa2-rO-146" value="" style="endArrow=none;html=1;rounded=0;exitX=0.418;exitY=0.021;exitDx=0;exitDy=0;exitPerimeter=0;entryX=0.5;entryY=1;entryDx=0;entryDy=0;" parent="1" source="N6c3QZD02UE0T_fa2-rO-143" edge="1">
          <mxGeometry width="50" height="50" relative="1" as="geometry">
            <mxPoint x="140" y="90" as="sourcePoint" />
            <mxPoint x="420" y="-100" as="targetPoint" />
          </mxGeometry>
        </mxCell>
        <mxCell id="N6c3QZD02UE0T_fa2-rO-147" value="Wi-Fi &lt;br&gt;Client&amp;nbsp;" style="whiteSpace=wrap;html=1;aspect=fixed;" parent="1" vertex="1">
          <mxGeometry x="50" y="360" width="80" height="80" as="geometry" />
        </mxCell>
        <mxCell id="N6c3QZD02UE0T_fa2-rO-148" value="Wi-Fi &lt;br&gt;Client&amp;nbsp;" style="whiteSpace=wrap;html=1;aspect=fixed;" parent="1" vertex="1">
          <mxGeometry x="230" y="360" width="80" height="80" as="geometry" />
        </mxCell>
        <mxCell id="N6c3QZD02UE0T_fa2-rO-150" value="Wi-Fi &lt;br&gt;Client&amp;nbsp;" style="whiteSpace=wrap;html=1;aspect=fixed;" parent="1" vertex="1">
          <mxGeometry x="435" y="360" width="80" height="80" as="geometry" />
        </mxCell>
        <mxCell id="N6c3QZD02UE0T_fa2-rO-151" value="Wi-Fi &lt;br&gt;Client&amp;nbsp;" style="whiteSpace=wrap;html=1;aspect=fixed;" parent="1" vertex="1">
          <mxGeometry x="345" y="360" width="80" height="80" as="geometry" />
        </mxCell>
        <mxCell id="N6c3QZD02UE0T_fa2-rO-152" value="Wi-Fi &lt;br&gt;Client&amp;nbsp;" style="whiteSpace=wrap;html=1;aspect=fixed;" parent="1" vertex="1">
          <mxGeometry x="140" y="360" width="80" height="80" as="geometry" />
        </mxCell>
        <mxCell id="N6c3QZD02UE0T_fa2-rO-153" value="" style="endArrow=none;dashed=1;html=1;dashPattern=1 3;strokeWidth=2;rounded=0;entryX=0.5;entryY=1;entryDx=0;entryDy=0;exitX=0.5;exitY=0;exitDx=0;exitDy=0;" parent="1" source="N6c3QZD02UE0T_fa2-rO-147" target="N6c3QZD02UE0T_fa2-rO-138" edge="1">
          <mxGeometry width="50" height="50" relative="1" as="geometry">
            <mxPoint x="10" y="110" as="sourcePoint" />
            <mxPoint x="60" y="60" as="targetPoint" />
          </mxGeometry>
        </mxCell>
        <mxCell id="N6c3QZD02UE0T_fa2-rO-154" value="" style="endArrow=none;dashed=1;html=1;dashPattern=1 3;strokeWidth=2;rounded=0;exitX=0.5;exitY=0;exitDx=0;exitDy=0;" parent="1" source="N6c3QZD02UE0T_fa2-rO-152" edge="1">
          <mxGeometry width="50" height="50" relative="1" as="geometry">
            <mxPoint x="100" y="370" as="sourcePoint" />
            <mxPoint x="200" y="290" as="targetPoint" />
          </mxGeometry>
        </mxCell>
        <mxCell id="N6c3QZD02UE0T_fa2-rO-155" value="" style="endArrow=none;dashed=1;html=1;dashPattern=1 3;strokeWidth=2;rounded=0;exitX=0.5;exitY=0;exitDx=0;exitDy=0;" parent="1" source="N6c3QZD02UE0T_fa2-rO-148" edge="1">
          <mxGeometry width="50" height="50" relative="1" as="geometry">
            <mxPoint x="110" y="380" as="sourcePoint" />
            <mxPoint x="200" y="290" as="targetPoint" />
          </mxGeometry>
        </mxCell>
        <mxCell id="N6c3QZD02UE0T_fa2-rO-156" value="" style="endArrow=none;dashed=1;html=1;dashPattern=1 3;strokeWidth=2;rounded=0;entryX=0.5;entryY=1;entryDx=0;entryDy=0;exitX=0.5;exitY=0;exitDx=0;exitDy=0;" parent="1" source="N6c3QZD02UE0T_fa2-rO-151" target="N6c3QZD02UE0T_fa2-rO-137" edge="1">
          <mxGeometry width="50" height="50" relative="1" as="geometry">
            <mxPoint x="120" y="390" as="sourcePoint" />
            <mxPoint x="230" y="320" as="targetPoint" />
          </mxGeometry>
        </mxCell>
        <mxCell id="N6c3QZD02UE0T_fa2-rO-157" value="" style="endArrow=none;dashed=1;html=1;dashPattern=1 3;strokeWidth=2;rounded=0;entryX=0.5;entryY=1;entryDx=0;entryDy=0;exitX=0.5;exitY=0;exitDx=0;exitDy=0;" parent="1" source="N6c3QZD02UE0T_fa2-rO-150" target="N6c3QZD02UE0T_fa2-rO-137" edge="1">
          <mxGeometry width="50" height="50" relative="1" as="geometry">
            <mxPoint x="380" y="370" as="sourcePoint" />
            <mxPoint x="440" y="290" as="targetPoint" />
          </mxGeometry>
        </mxCell>
        <mxCell id="13JGDWZoNSLka7d73sO--1" value="IP:42.50.11.247/24" style="text;html=1;align=center;verticalAlign=middle;whiteSpace=wrap;rounded=0;" vertex="1" parent="1">
          <mxGeometry x="540" y="-300" width="60" height="30" as="geometry" />
        </mxCell>
        <mxCell id="13JGDWZoNSLka7d73sO--3" value="" style="endArrow=none;html=1;rounded=0;entryX=0.5;entryY=1;entryDx=0;entryDy=0;entryPerimeter=0;" edge="1" parent="1" source="N6c3QZD02UE0T_fa2-rO-14" target="N6c3QZD02UE0T_fa2-rO-3">
          <mxGeometry width="50" height="50" relative="1" as="geometry">
            <mxPoint x="550" y="-330" as="sourcePoint" />
            <mxPoint x="495" y="-385" as="targetPoint" />
          </mxGeometry>
        </mxCell>
        <mxCell id="13JGDWZoNSLka7d73sO--4" value="IP:42.50.11.248/24" style="text;html=1;align=center;verticalAlign=middle;whiteSpace=wrap;rounded=0;" vertex="1" parent="1">
          <mxGeometry x="460" y="-550" width="60" height="30" as="geometry" />
        </mxCell>
        <mxCell id="13JGDWZoNSLka7d73sO--5" value="IP:42.50.11.249/24" style="text;html=1;align=center;verticalAlign=middle;whiteSpace=wrap;rounded=0;" vertex="1" parent="1">
          <mxGeometry x="600" y="-550" width="60" height="30" as="geometry" />
        </mxCell>
        <mxCell id="13JGDWZoNSLka7d73sO--6" value="IP:42.50.11.241/24" style="text;html=1;align=center;verticalAlign=middle;whiteSpace=wrap;rounded=0;" vertex="1" parent="1">
          <mxGeometry x="460" y="190" width="60" height="30" as="geometry" />
        </mxCell>
        <mxCell id="13JGDWZoNSLka7d73sO--7" value="IP:42.50.11.242/24" style="text;html=1;align=center;verticalAlign=middle;whiteSpace=wrap;rounded=0;" vertex="1" parent="1">
          <mxGeometry x="220" y="190" width="60" height="30" as="geometry" />
        </mxCell>
        <mxCell id="13JGDWZoNSLka7d73sO--8" value="IP:42.50.11.245/24" style="text;html=1;align=center;verticalAlign=middle;whiteSpace=wrap;rounded=0;" vertex="1" parent="1">
          <mxGeometry x="400" y="-120" width="60" height="30" as="geometry" />
        </mxCell>
        <mxCell id="13JGDWZoNSLka7d73sO--9" value="IP:42.50.11.246/24" style="text;html=1;align=center;verticalAlign=middle;whiteSpace=wrap;rounded=0;" vertex="1" parent="1">
          <mxGeometry x="170" y="-120" width="60" height="30" as="geometry" />
        </mxCell>
        <mxCell id="13JGDWZoNSLka7d73sO--10" value="IP:42.50.11.244/24" style="text;html=1;align=center;verticalAlign=middle;whiteSpace=wrap;rounded=0;" vertex="1" parent="1">
          <mxGeometry x="670" y="-110" width="60" height="30" as="geometry" />
        </mxCell>
        <mxCell id="13JGDWZoNSLka7d73sO--11" value="IP:42.50.11.243/24" style="text;html=1;align=center;verticalAlign=middle;whiteSpace=wrap;rounded=0;" vertex="1" parent="1">
          <mxGeometry x="890" y="-120" width="60" height="30" as="geometry" />
        </mxCell>
        <mxCell id="13JGDWZoNSLka7d73sO--12" value="IP:42.50.11.240/24" style="text;html=1;align=center;verticalAlign=middle;whiteSpace=wrap;rounded=0;" vertex="1" parent="1">
          <mxGeometry x="730" y="190" width="60" height="30" as="geometry" />
        </mxCell>
        <mxCell id="13JGDWZoNSLka7d73sO--13" value="IP:42.50.11.239/24" style="text;html=1;align=center;verticalAlign=middle;whiteSpace=wrap;rounded=0;" vertex="1" parent="1">
          <mxGeometry x="970" y="190" width="60" height="30" as="geometry" />
        </mxCell>
        <mxCell id="13JGDWZoNSLka7d73sO--14" value="IP:&lt;br&gt;42.50.12.20/24" style="text;html=1;align=center;verticalAlign=middle;whiteSpace=wrap;rounded=0;" vertex="1" parent="1">
          <mxGeometry x="150" y="410" width="60" height="30" as="geometry" />
        </mxCell>
        <mxCell id="13JGDWZoNSLka7d73sO--15" value="IP:&lt;br&gt;42.50.12.23/24" style="text;html=1;align=center;verticalAlign=middle;whiteSpace=wrap;rounded=0;" vertex="1" parent="1">
          <mxGeometry x="445" y="410" width="60" height="30" as="geometry" />
        </mxCell>
        <mxCell id="13JGDWZoNSLka7d73sO--16" value="IP:&lt;br&gt;42.50.15.23/24" style="text;html=1;align=center;verticalAlign=middle;whiteSpace=wrap;rounded=0;" vertex="1" parent="1">
          <mxGeometry x="110" y="110" width="60" height="30" as="geometry" />
        </mxCell>
        <mxCell id="13JGDWZoNSLka7d73sO--17" value="IP:&lt;br&gt;42.50.15.43/24" style="text;html=1;align=center;verticalAlign=middle;whiteSpace=wrap;rounded=0;" vertex="1" parent="1">
          <mxGeometry x="460" y="110" width="60" height="30" as="geometry" />
        </mxCell>
        <mxCell id="13JGDWZoNSLka7d73sO--18" value="IP:&lt;br&gt;42.50.15.83/24" style="text;html=1;align=center;verticalAlign=middle;whiteSpace=wrap;rounded=0;" vertex="1" parent="1">
          <mxGeometry x="840" y="110" width="60" height="30" as="geometry" />
        </mxCell>
        <mxCell id="13JGDWZoNSLka7d73sO--19" value="CCTV Camera 1" style="shape=process;whiteSpace=wrap;html=1;backgroundOutline=1;" vertex="1" parent="1">
          <mxGeometry x="20" y="-60" width="120" height="60" as="geometry" />
        </mxCell>
        <mxCell id="13JGDWZoNSLka7d73sO--20" value="CCTV Camera 2" style="shape=process;whiteSpace=wrap;html=1;backgroundOutline=1;" vertex="1" parent="1">
          <mxGeometry x="980" y="-80" width="120" height="60" as="geometry" />
        </mxCell>
        <mxCell id="13JGDWZoNSLka7d73sO--21" value="" style="endArrow=none;html=1;rounded=0;entryX=0;entryY=0.5;entryDx=0;entryDy=0;" edge="1" parent="1" source="13JGDWZoNSLka7d73sO--19" target="N6c3QZD02UE0T_fa2-rO-26">
          <mxGeometry width="50" height="50" relative="1" as="geometry">
            <mxPoint x="150" y="70" as="sourcePoint" />
            <mxPoint x="210" y="-90" as="targetPoint" />
          </mxGeometry>
        </mxCell>
        <mxCell id="13JGDWZoNSLka7d73sO--22" value="" style="endArrow=none;html=1;rounded=0;entryX=1;entryY=0.5;entryDx=0;entryDy=0;exitX=0.5;exitY=0;exitDx=0;exitDy=0;" edge="1" parent="1" source="13JGDWZoNSLka7d73sO--20" target="N6c3QZD02UE0T_fa2-rO-29">
          <mxGeometry width="50" height="50" relative="1" as="geometry">
            <mxPoint x="108" y="-50" as="sourcePoint" />
            <mxPoint x="150" y="-120" as="targetPoint" />
          </mxGeometry>
        </mxCell>
        <mxCell id="13JGDWZoNSLka7d73sO--23" value="IP:42.50.10.1/24" style="text;html=1;align=center;verticalAlign=middle;whiteSpace=wrap;rounded=0;" vertex="1" parent="1">
          <mxGeometry x="50" y="-20" width="60" height="30" as="geometry" />
        </mxCell>
        <mxCell id="13JGDWZoNSLka7d73sO--24" value="IP:42.50.10.2/24" style="text;html=1;align=center;verticalAlign=middle;whiteSpace=wrap;rounded=0;" vertex="1" parent="1">
          <mxGeometry x="1010" y="-45" width="60" height="30" as="geometry" />
        </mxCell>
      </root>
    </mxGraphModel>
  </diagram>
</mxfile>
